<?xml version="1.0" standalone="no"?><!DOCTYPE svg PUBLIC "-//W3C//DTD SVG 1.1//EN" "http://www.w3.org/Graphics/SVG/1.1/DTD/svg11.dtd"><svg t="1497766195710" class="icon" style="" viewBox="0 0 1024 1024" version="1.1" xmlns="http://www.w3.org/2000/svg" p-id="2912" xmlns:xlink="http://www.w3.org/1999/xlink" width="200" height="200"><defs><style type="text/css"></style></defs><path d="M512 20.8C240.64 20.8 20.8 240.64 20.8 512c0 271.36 220 491.2 491.2 491.2s491.2-220 491.2-491.2C1003.2 240.64 783.36 20.8 512 20.8zM734.24 699.2 289.76 699.2c-12.96 0-23.36-10.4-23.36-23.36 0-12.96 10.4-23.36 23.36-23.36l444.48 0c12.96 0 23.36 10.4 23.36 23.36C757.6 688.64 747.2 699.2 734.24 699.2zM734.24 535.36 289.76 535.36c-12.96 0-23.36-10.4-23.36-23.36 0-12.96 10.4-23.36 23.36-23.36l444.48 0c12.96 0 23.36 10.4 23.36 23.36C757.6 524.96 747.2 535.36 734.24 535.36zM734.24 383.36 289.76 383.36c-12.96 0-23.36-10.4-23.36-23.36 0-12.96 10.4-23.36 23.36-23.36l444.48 0c12.96 0 23.36 10.4 23.36 23.36C757.6 372.8 747.2 383.36 734.24 383.36z" p-id="2913" fill="#1296db"></path></svg>